<?xml version="1.0" encoding="UTF-8" standalone="no"?>
<svg
   xmlns:dc="http://purl.org/dc/elements/1.1/"
   xmlns:cc="http://creativecommons.org/ns#"
   xmlns:rdf="http://www.w3.org/1999/02/22-rdf-syntax-ns#"
   xmlns:svg="http://www.w3.org/2000/svg"
   xmlns="http://www.w3.org/2000/svg"
   id="svg3729"
   version="1.1"
   viewBox="0 0 210 297"
   height="297mm"
   width="210mm">
  <defs
     id="defs3723" />
  <metadata
     id="metadata3726">
    <rdf:RDF>
      <cc:Work
         rdf:about="">
        <dc:format>image/svg+xml</dc:format>
        <dc:type
           rdf:resource="http://purl.org/dc/dcmitype/StillImage" />
        <dc:title></dc:title>
      </cc:Work>
    </rdf:RDF>
  </metadata>
  <g
     id="layer1">
    <path
       id="path3746"
       d="m 58.828927,221.87702 c -13.448536,-3.25635 -19.813066,-10.86475 -24.77076,-29.612 -0.923117,-3.49079 -0.810485,-13.40205 0.224901,-19.7804 1.033109,-6.3649 1.418399,-5.6601 -3.338273,-6.10646 -21.1538419,-1.98505 -35.6650795,-22.53227 -28.6243001,-40.53065 2.3834236,-6.09276 4.7576052,-8.70748 6.2783481,-6.91449 6.826714,8.04875 23.665878,1.31396 27.450196,-10.97868 0.335416,-1.08952 -0.152969,-1.53359 -3.498116,-3.18037 -17.899338,-8.811816 -15.768086,-30.755374 3.562012,-36.674698 1.538202,-0.471035 1.778536,-0.813171 1.616553,-2.30133 -1.46561,-13.464692 1.358897,-37.000667 4.727194,-39.390351 0.23346,-0.165625 1.174924,-1.791773 2.092145,-3.613662 9.213279,-18.3001942 35.187827,-23.9337034 49.193174,-10.669301 1.095094,1.03715 1.192179,1.00735 2.75014,-0.844181 6.183429,-7.3485906 16.831219,-12.292094 23.874819,-11.08448895 1.36062,0.23327526 4.0987,0.54898071 6.08462,0.70156717 5.58782,0.42933268 8.24291,2.10209518 16.68351,10.51092878 7.64645,7.617679 7.64645,7.617679 9.03415,6.129438 3.23361,-3.467869 13.42801,-7.39178 19.204,-7.39178 15.24597,0 22.78595,16.676806 14.35987,31.760989 -2.07728,3.718728 -2.08666,3.773355 -0.64725,3.773355 4.27177,0 17.86977,13.261979 21.92256,21.380833 6.85207,13.726624 1.01483,39.363841 -10.71213,47.047631 -1.25159,0.82007 -1.28198,1.00896 -0.51877,3.22421 4.15222,12.0519 -3.59852,35.40248 -15.51575,46.74405 -8.85139,8.42383 -15.12598,10.93762 -33.02873,13.23233 -14.71165,1.88571 -20.44125,3.80201 -24.95701,8.34703 -4.79489,4.82594 -6.29337,14.45897 -3.0251,19.44698 1.00992,1.54135 0.72888,2.58946 -0.69435,2.58946 -0.49535,0 -2.78444,-1.62136 -5.08686,-3.60299 -2.30242,-1.98163 -5.30539,-4.17393 -6.67324,-4.87176 -2.58082,-1.31663 -7.609174,-6.00681 -10.179643,-9.49502 -2.79801,-3.79695 -2.667258,-3.73884 -6.156542,-2.7363 -15.828044,4.5478 -27.598339,26.99507 -16.073022,30.65307 7.573553,2.40375 -6.876907,6.33911 -15.558278,4.23704 z m 10.237465,-1.82011 c 2.887674,-0.47115 3.150726,-0.99712 1.717622,-3.43412 -6.615813,-11.25011 2.176414,-26.82437 17.833712,-31.59003 1.928797,-0.58707 3.578174,-1.10753 3.665266,-1.15656 0.08718,-0.0489 -0.529222,-1.64396 -1.36964,-3.54426 -6.538145,-14.78389 -0.08718,-33.47523 13.807508,-40.00652 3.0566,-1.43675 3.57966,-2.49658 1.23213,-2.49658 -3.68655,0 -9.861778,-4.64443 -11.877826,-8.93341 -1.228896,-2.61433 -1.29195,-2.65742 -1.834807,-1.2535 -6.63721,17.16507 -28.136781,34.93613 -45.475211,37.5888 -9.777944,1.49598 -9.751288,1.46622 -10.959901,12.232 -2.541742,22.64087 7.605011,40.31777 24.58879,42.83675 3.377972,0.501 4.267582,0.47611 8.672357,-0.24257 z m 46.037878,-21.25263 c -1.09309,-6.83582 6.28006,-18.2028 12.85584,-19.81946 0.82813,-0.20351 2.18923,-0.7137 3.02468,-1.13357 0.83543,-0.41984 5.9849,-1.46966 11.44326,-2.33289 26.49466,-4.19016 32.88036,-7.09422 41.23399,-18.75225 10.97818,-15.32074 15.29004,-41.98058 6.4654,-39.97516 -8.21725,1.86741 -20.57024,-7.09452 -20.60433,-14.94815 -0.008,-1.80479 -0.64678,-1.70825 -2.66991,0.40345 -0.92665,0.96723 -3.94009,2.76348 -6.69652,3.99172 -5.86212,2.61205 -6.05001,2.92177 -6.52852,10.76054 -0.74202,12.15551 -11.42354,21.50262 -25.66783,22.46118 -4.29836,0.28927 -4.97796,0.54222 -11.14235,4.14718 -13.71681,8.02167 -17.718904,12.81436 -19.183285,22.97272 -1.529711,10.61169 1.8593,19.0934 11.742505,29.38796 5.50583,5.73501 6.24943,6.10334 5.72707,2.83673 z M 98.814672,186.51933 c -9.049543,-13.67159 -4.224945,-31.39524 11.378268,-41.79904 8.75774,-5.83943 6.48275,-7.7364 -3.22056,-2.68542 -17.529145,9.12461 -21.392042,28.46803 -9.001722,45.07619 3.046742,4.08391 3.656142,3.65666 0.844014,-0.59173 z M 44.302688,162.75252 c 0.46437,-0.3702 2.470471,-1.56267 4.457996,-2.64996 10.63507,-5.818 13.688734,-8.62102 21.833985,-20.04201 6.866163,-9.62751 8.328382,-12.41209 10.351577,-19.71303 1.661511,-5.99572 1.612205,-6.34688 -1.147426,-8.17313 -5.011165,-3.31622 -6.752096,-10.35238 -4.015547,-16.229105 1.414075,-3.036681 1.414075,-3.036681 -1.273716,-7.528462 C 63.093435,69.338295 60.86421,58.028407 66.161941,46.065508 71.692653,33.576494 90.722892,27.814261 100.17402,35.766864 c 1.7067,1.436094 1.7067,1.436094 2.41086,-1.703051 1.71152,-7.630064 5.10567,-11.941235 11.19495,-14.219526 7.31616,-2.737326 11.60262,-0.488351 15.76519,8.271505 0.95019,1.999599 1.99864,3.601747 2.32989,3.560332 3.65271,-0.456708 9.5307,4.306051 9.22688,7.476258 -0.19273,2.010997 -0.19273,2.010997 -3.65582,1.804776 -3.29109,-0.195992 -3.46264,-0.136147 -3.45395,1.204554 0.0445,6.864984 12.13535,23.27343 17.14946,23.27343 10.47876,0 20.7687,15.085576 19.37636,28.406739 -1.28941,12.336399 21.68556,17.325259 29.21875,6.344639 12.14236,-17.699 10.2928,-31.853222 -5.96629,-45.658795 -2.80486,-2.381602 -5.586,-4.611797 -6.1803,-4.955982 -0.5943,-0.344184 -1.44824,-0.929047 -1.89764,-1.299691 -0.44939,-0.370645 -2.36739,-1.077547 -4.26225,-1.570895 -4.04241,-1.052489 -9.2451,-3.859846 -15.87754,-8.56747 -5.23273,-3.714119 -9.43974,-7.931327 -13.80065,-13.834064 -18.76432,-25.3986353 -36.07978,-27.3443561 -50.0457,-5.623588 -3.23921,5.037815 -3.884229,5.237089 -9.052938,2.796812 -18.802356,-8.877043 -38.223052,10.778665 -32.99311,33.392334 0.556856,2.407783 -1.254368,2.193795 -2.548867,-0.301139 -7.357757,-14.180716 -6.638348,-24.566371 2.363915,-34.126789 1.586734,-1.685098 3.145127,-3.063817 3.463107,-3.063817 0.317979,0 0.57814,-0.239853 0.57814,-0.533007 0,-3.448554 16.167012,-6.189189 21.240798,-3.600744 3.520743,1.796148 7.228758,4.199822 8.113975,5.259789 0.994662,1.190983 1.324546,0.741719 0.936934,-1.276004 C 92.422235,10.008757 76.040589,4.4777481 65.874464,7.7920852 46.591417,14.078698 37.761562,31.812819 39.706543,60.348419 c 0.437031,6.411733 0.437031,6.411733 3.975574,6.411733 6.598923,0 12.004756,3.623328 12.004756,8.046348 0,0.845128 0.656742,2.504376 1.459442,3.687223 3.271121,4.820266 2.646589,12.256465 -1.485187,17.683685 -1.347514,1.770009 -2.343975,3.667188 -2.214384,4.215942 1.28701,5.44892 -15.359919,20.74392 -20.724346,19.0413 -0.662455,-0.21033 -2.632271,0.59191 -5.082596,2.06977 -6.567531,3.96107 -12.619271,4.60202 -17.8262223,1.888 -3.0385491,-1.58377 -3.283618,-1.38712 -5.6060589,4.49886 -5.5034878,13.94798 3.0841212,29.17305 19.5586632,34.67577 3.830573,1.27945 18.992429,1.41639 20.536504,0.18552 z m 15.11073,-4.16892 c 20.67388,-10.2107 39.610722,-38.99141 28.468441,-43.26709 -1.706604,-0.6549 -3.285689,-0.404 -3.285689,0.52201 0,4.38249 -5.030218,15.91577 -9.590989,21.99032 -1.865287,2.4844 -4.445909,6.07635 -5.734717,7.98213 -2.78285,4.11509 -8.543608,9.73294 -12.528538,12.21777 -4.946085,3.08415 -3.188695,3.44916 2.671492,0.55486 z m 74.717632,-23.24793 c 12.76134,-4.36578 16.15723,-8.36227 17.0387,-20.05219 0.53312,-7.07012 3.2527,-11.1418 7.47648,-11.19359 14.66536,-0.17983 11.14342,-27.034709 -4.60773,-35.134054 -6.93089,-3.563913 -23.86445,8.527243 -22.92257,16.367511 0.3294,2.741951 -1.11337,8.059231 -2.62785,9.684837 -1.69296,1.817172 -1.49075,2.067811 3.11345,3.859095 9.50097,3.696411 18.29592,2.094241 24.8155,-4.520624 2.24394,-2.276734 3.66183,-2.829872 4.35965,-1.700763 0.50665,0.819758 -4.33021,5.526107 -7.72246,7.514088 -1.54542,0.90568 -2.80986,2.04503 -2.80986,2.53186 0,0.82526 -4.29109,8.38388 -7.75481,13.65985 -10.68942,16.28226 -33.04258,17.08776 -42.936416,1.54722 -1.161152,-1.82386 -1.891783,-2.27077 -4.662546,-2.85194 -4.084974,-0.85683 -4.070907,-0.87379 -2.77404,3.34478 2.922138,9.50538 6.973582,15.22134 11.414802,16.10453 0.6826,0.13567 2.86723,0.64317 4.85476,1.12762 6.05293,1.4754 21.08163,1.30716 25.74494,-0.28823 z m -6.02037,-9.96952 c 3.08969,-1.10738 3.34354,-1.44384 1.9574,-2.59423 -0.72367,-0.60061 -1.09689,-0.5892 -1.87587,0.0574 -0.83226,0.69073 -1.12834,0.61454 -2.05394,-0.52853 -1.25845,-1.55414 -2.5398,-1.70802 -3.59866,-0.43216 -1.13407,1.36647 -2.7771,1.0871 -4.07354,-0.69262 -1.16262,-1.59604 -1.16262,-1.59604 -3.71301,-0.16253 -2.36715,1.33042 -2.59227,1.35855 -3.13347,0.39148 -0.75621,-1.35125 -1.88966,-1.32227 -3.15939,0.0808 -3.16158,3.49352 12.24295,6.53569 19.65048,3.8807 z m -87.781882,-11.3163 c 6.719204,-3.96189 8.058319,-6.89669 3.120634,-6.83921 -4.280329,0.0499 -8.842261,4.78365 -8.842261,9.1754 0,0.49633 2.984327,-0.72219 5.721627,-2.33619 z m 74.118542,-1.21551 c 2.2867,-2.49649 3.38576,-2.64429 4.47861,-0.60227 1.05445,1.97025 1.37792,1.90751 3.08432,-0.59817 1.65836,-2.43512 3.01387,-2.67311 4.31153,-0.75695 0.9177,1.35512 0.9177,1.35512 2.95786,-0.59735 1.97018,-1.88552 2.08912,-1.91819 3.46788,-0.95246 1.37202,0.961 1.47773,0.9373 2.70928,-0.60721 1.32367,-1.66003 3.22819,-2.08468 4.34426,-0.9686 0.44997,0.44996 1.13529,0.0496 2.31998,-1.35511 1.68138,-1.99374 1.68138,-1.99374 -2.47556,-2.37366 -4.89495,-0.44734 -8.75177,-1.59757 -12.63578,-3.76841 -1.54824,-0.86532 -2.89838,-1.573324 -3.00031,-1.573324 -0.10193,0 -1.41743,1.558394 -2.92335,3.463104 -2.39122,3.02444 -6.36593,6.67183 -10.28284,9.43604 -1.1749,0.82915 -1.17595,0.86723 -0.0571,2.10339 1.46698,1.62099 1.43144,1.62914 3.70136,-0.84902 z m 79.01275,0.16025 c 3.70612,-1.85092 8.17236,-6.93511 10.68956,-12.1686 2.73981,-5.696278 2.71495,-7.606092 -0.0392,-3.013149 -6.87012,11.456909 -19.58059,14.974579 -29.12517,8.060529 -2.97369,-2.15413 -3.12396,-1.53602 -0.47189,1.94106 4.40631,5.77708 13.03035,8.13494 18.94672,5.18016 z m -107.530268,-3.3222 c -3.733442,-4.5417 -5.231354,-7.33663 -4.381147,-8.17482 0.749638,-0.73905 1.80954,0.24395 5.617349,5.20986 6.50853,8.48802 18.208436,7.54636 28.535356,-2.29669 4.4912,-4.28074 5.33013,-5.729914 3.31711,-5.729914 -1.33119,0 -4.13209,-1.344032 -8.22328,-3.946003 -12.554512,-7.984609 -22.831289,-9.660458 -27.93617,-4.555582 -8.479484,8.479504 -8.257224,17.111139 0.543404,21.103059 4.585606,2.08003 5.225548,1.67239 2.527378,-1.60991 z m -39.0418,-5.54111 c 3.537519,-0.82064 5.844686,-5.450454 2.716085,-5.450454 -1.279521,0 -6.90074,-4.2214 -8.202159,-6.159636 -4.19392,-6.246124 0.292917,-14.862788 8.790384,-16.881301 3.514778,-0.834908 3.706649,-1.29589 1.520742,-3.653305 -6.059616,-6.535012 -24.244656,-0.747243 -28.323371,9.014497 -4.984349,11.929242 9.656912,26.341129 23.498319,23.130199 z M 54.973497,92.055787 C 60.849186,82.3295 53.201721,74.019211 45.154739,81.386003 c -4.775679,4.372001 -4.106964,8.66649 1.948395,12.512547 4.024083,2.555893 5.409021,2.231622 7.870363,-1.842763 z M 79.771641,89.65846 c 0.523804,-0.978737 0.151831,-2.032458 -2.073411,-5.872202 -3.691945,-6.370845 -5.135725,-10.870932 -5.30695,-16.541069 -0.159798,-5.29125 -0.239811,-5.40205 -2.040177,-2.824721 -2.096994,3.001942 -3.829959,0.863467 -3.180228,-3.924389 1.102036,-8.121054 6.87149,-15.90658 12.071384,-16.289655 2.221395,-0.163645 3.126142,-0.662736 5.664379,-3.124592 1.661374,-1.611411 4.167036,-3.336374 5.568112,-3.833255 6.332411,-2.24574 0.922594,-3.606491 -6.924846,-1.74183 -18.485242,4.392344 -23.196501,20.231188 -12.414676,41.737162 5.747418,11.46409 7.667747,14.224512 8.636413,12.414551 z m 31.216209,-0.841948 c 1.6105,-4.453737 12.03579,-9.102327 16.68606,-7.440229 0.9846,0.351915 1.44137,0.02386 2.37146,-1.703211 1.49434,-2.774834 8.46663,-9.33905 12.17757,-11.464853 1.59613,-0.914342 3.01905,-1.753777 3.16204,-1.865414 0.14297,-0.111631 -0.5546,-1.079744 -1.55019,-2.151353 -1.82094,-1.959995 -6.12919,-7.803204 -9.87379,-13.391642 -4.8223,-7.196826 -7.68484,-9.803195 -10.43004,-9.496651 -3.85284,0.430227 -6.04623,-1.537829 -5.64833,-5.068046 0.79425,-7.046513 -10.86134,-6.072052 -13.13711,1.098326 -0.95752,3.016824 -2.44712,3.86454 -4.810419,2.737555 -5.992624,-2.857679 -16.952616,2.225698 -15.339159,7.114492 1.152844,3.493156 -0.650368,6.49092 -5.950102,9.891743 -7.335062,4.706905 -2.109332,32.511004 5.382274,28.636949 4.425148,-2.288328 13.507083,-1.083623 20.804586,2.759681 5.45361,2.872209 5.24467,2.860579 6.15515,0.342653 z M 85.821583,82.83707 c -7.074925,-2.436772 -6.20043,-15.567506 1.215169,-18.246508 3.997108,-1.444012 6.164076,-1.07057 9.176994,1.581509 8.968164,7.894087 1.042693,20.603444 -10.392163,16.664999 z m 8.430724,-2.535883 c 5.400234,-2.792565 4.524715,-10.328563 -1.533968,-13.203597 -5.784636,-2.744992 -12.080193,4.520986 -9.266954,10.695397 1.366385,2.998871 7.222361,4.35875 10.800922,2.5082 z m -7.126574,-1.013673 c -1.032585,-1.032568 -0.892842,-3.299057 0.229932,-3.729908 1.79142,-0.687433 2.638098,-0.365377 3.017903,1.147941 0.626603,2.496522 -1.579495,4.250315 -3.247835,2.581967 z m 38.056527,-9.315366 c -7.67977,-1.58554 -6.29019,-14.733151 1.79305,-16.96504 6.2692,-1.731007 12.38768,5.566514 9.39576,11.206333 -2.32961,4.39137 -6.76201,6.672651 -11.18881,5.758707 z m 7.46399,-5.33053 c 1.49644,-1.496448 2.52272,-2.918906 2.28061,-3.161009 -0.2421,-0.242109 -0.78669,0.03367 -1.21019,0.612841 -0.89557,1.224762 -2.19912,1.358188 -3.227,0.330308 -1.54489,-1.54489 -0.37289,-4.987939 1.45863,-4.285123 1.3269,0.509177 0.95821,-0.85683 -0.50854,-1.884182 -5.24709,-3.675196 -12.34851,5.898953 -7.31323,9.859709 2.71568,2.136155 5.36973,1.677431 8.51972,-1.472544 z M 73.357465,58.029839 c 2.040632,-1.820394 3.996038,-3.31103 4.345386,-3.312523 1.14433,-0.0048 5.086943,-4.05327 5.067321,-5.203289 -0.105621,-6.200174 -7.397729,-3.45711 -11.046788,4.15552 -3.955156,8.251157 -3.647557,9.071942 1.634081,4.360292 z M 56.795397,42.97021 c 1.216717,-5.981957 2.167833,-8.49944 4.677547,-12.380727 5.724405,-8.852828 11.523655,-13.260622 18.611942,-14.146245 3.701072,-0.462419 3.87034,-1.138524 0.423031,-1.689769 -15.079407,-2.411295 -31.28687,16.201493 -25.716572,29.533113 1.095367,2.621579 1.219677,2.539925 2.004052,-1.316372 z M 183.90843,39.48463 c 7.24982,-14.634997 -1.21229,-29.258587 -15.29434,-26.430509 -14.45329,2.902637 -17.86401,6.824365 -11.97728,13.771763 4.7955,5.659541 4.82055,5.671949 5.61563,2.782617 1.55885,-5.664783 8.5295,-11.888051 12.8555,-11.477152 8.96284,0.851329 10.79228,13.043285 3.18321,21.214143 -2.87385,3.086031 -2.14721,4.424827 2.75646,5.078644 0.21354,0.02848 1.50091,-2.194307 2.86082,-4.939506 z m -7.83193,-1.177893 c 5.72264,-5.666001 5.93042,-14.338073 0.40634,-16.959422 -3.61122,-1.713636 -9.46627,2.770355 -11.5122,8.816425 -1.34594,3.977459 -1.11636,4.46611 3.64317,7.754135 5.08957,3.516038 4.34352,3.477163 7.46269,0.388862 z M 138.19502,37.80527 c 0.005,-0.522527 -2.52935,-2.724063 -4.02198,-3.492814 -2.89195,-1.48945 -10.92528,-0.651427 -14.54924,1.517749 -0.11306,0.06768 -0.0343,0.662517 0.17494,1.321875 0.36911,1.162977 18.38371,1.802617 18.39628,0.65319 z m -11.95047,-6.415419 c 4.1468,-0.877126 -1.91776,-9.800474 -6.66068,-9.800474 -4.74207,0 -10.59274,3.125718 -12.40296,6.62627 -1.44287,2.790225 -1.08323,3.072216 1.89718,1.487524 4.24021,-2.254542 7.25967,-1.746082 10.26233,1.728114 1.11959,1.295416 1.57267,1.442007 3.01138,0.974293 0.93143,-0.302798 2.68317,-0.759877 3.89275,-1.015727 z M 99.431055,17.592942 c 1.513645,-3.189765 7.200255,-9.1020759 11.364155,-11.8151656 3.61367,-2.3545757 3.61367,-2.3545757 1.23782,-1.9552062 -7.63977,1.2842124 -16.531795,9.8705058 -14.837369,14.3272218 0.802973,2.111984 0.991202,2.0651 2.235394,-0.55685 z"
       style="fill:#000000;stroke-width:0.60227704" />
  </g>
</svg>
